# xmcd CD database file
#
# Track frame offsets:
#	150
#	23629
#	40805
#	52017
#	75737
#	86404
#	101574
#	118283
#
# Disc length: 1758 seconds
#
# Revision: 0
# Processed by: cddbd v1.5.2PL0 Copyright (c) Steve Scherf et al.
# Submitted via: CDex 1.51
#
DISCID=5e06dc08
DTITLE=Tony Pabon Y La Nueva Protesta - Fango
DYEAR=1976
DGENRE=Salsa
TTITLE0=Querida
TTITLE1=Fango
TTITLE2=Verdad Amarga
TTITLE3=Jardinero
TTITLE4=S.S.T.
TTITLE5=Frenesi
TTITLE6=Burn
TTITLE7=Friend
EXTD=YEAR: 1976
EXTT0=
EXTT1=
EXTT2=
EXTT3=
EXTT4=
EXTT5=
EXTT6=
EXTT7=
PLAYORDER=
